<svg width="1930" height="959" viewBox="0 0 1930 959" fill="none" xmlns="http://www.w3.org/2000/svg">
<path d="M1550.41 957.704H210.52C94.8055 957.704 0.999848 629.562 0.999848 224.778V155.411" stroke="url(#paint0_linear_71_152)"/>
<path d="M1609.02 918.865H269.132C153.418 918.865 59.6126 590.723 59.6126 185.939V116.572" stroke="url(#paint1_linear_71_152)"/>
<path d="M1711.04 879.997H371.15C255.435 879.997 161.63 551.855 161.63 147.071V77.7051" stroke="url(#paint2_linear_71_152)"/>
<path d="M1856.36 841.161H516.469C400.755 841.161 306.949 513.019 306.949 108.235V38.8672" stroke="url(#paint3_linear_71_152)"/>
<path d="M1929.43 802.292H589.542C473.827 802.292 380.022 474.15 380.022 69.3652V0" stroke="url(#paint4_linear_71_152)"/>
<defs>
<linearGradient id="paint0_linear_71_152" x1="1611.74" y1="1201.14" x2="674.327" y2="-632.046" gradientUnits="userSpaceOnUse">
<stop/>
<stop offset="0.32" stop-color="#666666" stop-opacity="0.6"/>
<stop offset="0.35" stop-color="white"/>
<stop offset="0.52" stop-color="#939393" stop-opacity="0.2"/>
<stop offset="0.62" stop-color="#0D0D0E"/>
<stop offset="0.805" stop-color="#5E5E5E" stop-opacity="0"/>
</linearGradient>
<linearGradient id="paint1_linear_71_152" x1="1670.35" y1="1162.29" x2="732.931" y2="-670.876" gradientUnits="userSpaceOnUse">
<stop/>
<stop offset="0.32" stop-color="#666666" stop-opacity="0.6"/>
<stop offset="0.35" stop-color="white"/>
<stop offset="0.52" stop-color="#939393" stop-opacity="0.2"/>
<stop offset="0.62" stop-color="#0D0D0E"/>
<stop offset="0.805" stop-color="#5E5E5E" stop-opacity="0"/>
</linearGradient>
<linearGradient id="paint2_linear_71_152" x1="1772.37" y1="1123.43" x2="834.957" y2="-709.752" gradientUnits="userSpaceOnUse">
<stop/>
<stop offset="0.32" stop-color="#666666" stop-opacity="0.6"/>
<stop offset="0.35" stop-color="white"/>
<stop offset="0.52" stop-color="#939393" stop-opacity="0.2"/>
<stop offset="0.62" stop-color="#0D0D0E"/>
<stop offset="0.805" stop-color="#5E5E5E" stop-opacity="0"/>
</linearGradient>
<linearGradient id="paint3_linear_71_152" x1="1917.69" y1="1084.59" x2="980.275" y2="-748.59" gradientUnits="userSpaceOnUse">
<stop/>
<stop offset="0.32" stop-color="#666666" stop-opacity="0.6"/>
<stop offset="0.35" stop-color="white"/>
<stop offset="0.52" stop-color="#939393" stop-opacity="0.2"/>
<stop offset="0.62" stop-color="#0D0D0E"/>
<stop offset="0.805" stop-color="#5E5E5E" stop-opacity="0"/>
</linearGradient>
<linearGradient id="paint4_linear_71_152" x1="1990.76" y1="1045.72" x2="1053.34" y2="-787.447" gradientUnits="userSpaceOnUse">
<stop/>
<stop offset="0.32" stop-color="#666666" stop-opacity="0.6"/>
<stop offset="0.35" stop-color="white"/>
<stop offset="0.52" stop-color="#939393" stop-opacity="0.2"/>
<stop offset="0.62" stop-color="#0D0D0E"/>
<stop offset="0.805" stop-color="#5E5E5E" stop-opacity="0"/>
</linearGradient>
</defs>
</svg>
