<svg width="475" height="169" viewBox="0 0 475 169" fill="none" xmlns="http://www.w3.org/2000/svg">
<path d="M121.342 110.65C121.349 109.263 122.937 108.434 123.958 109.373C126.786 111.729 130.835 113.274 135.081 113.844C135.214 113.861 135.313 113.972 135.313 114.106C135.313 114.246 135.421 114.363 135.56 114.373C135.906 114.397 136.254 114.421 136.61 114.446C137.753 114.534 138.865 114.66 139.992 114.822C142.211 115.123 144.452 115.245 146.703 115.371C148.438 115.474 149.97 115.691 151.645 116.041C152.591 116.148 153.541 116.216 154.494 116.282C156.266 116.406 157.962 116.597 159.695 116.883C161.395 117.143 163.125 117.286 164.847 117.452C165.134 117.48 165.42 117.509 165.716 117.539C165.97 117.564 166.225 117.588 166.488 117.614C167.296 117.727 167.296 117.727 168.281 117.969C169.374 118.217 170.35 118.316 171.492 118.389C172.11 118.43 172.11 118.43 172.742 118.473C173.591 118.527 174.439 118.581 175.288 118.635C177.774 118.802 180.207 119.043 182.66 119.364C186.302 119.834 189.98 120.144 193.65 120.485C194.629 120.576 195.609 120.669 196.588 120.761C197.029 120.802 197.029 120.802 197.478 120.843C199.123 120.998 200.726 121.204 202.339 121.48C203.44 121.643 204.537 121.659 205.658 121.686C207.691 121.755 209.536 121.968 211.511 122.329C213.881 122.728 216.316 122.931 218.724 123.18C219.284 123.239 219.284 123.239 219.855 123.299C220.192 123.333 220.529 123.368 220.877 123.403C221.734 123.507 221.734 123.507 222.755 123.748C223.276 123.797 223.799 123.836 224.322 123.869C224.629 123.889 224.936 123.908 225.252 123.929C225.572 123.949 225.892 123.969 226.221 123.989C228.286 124.12 229.672 124.208 230.619 124.278C232.198 124.396 233.788 124.81 235.365 124.937C235.606 124.958 235.846 124.978 236.094 124.999C236.864 125.065 237.635 125.129 238.406 125.193C239.42 125.277 240.434 125.363 241.447 125.449C241.8 125.478 241.8 125.478 242.16 125.507C242.426 125.53 242.649 125.549 242.837 125.566C243.768 125.65 244.673 125.988 245.603 126.076C245.903 126.105 246.202 126.134 246.511 126.163C246.837 126.194 247.163 126.224 247.498 126.255C247.83 126.287 248.162 126.319 248.504 126.352C249.568 126.453 250.632 126.553 251.697 126.653C252.416 126.722 253.136 126.79 253.856 126.859C255.546 127.02 257.237 127.18 258.927 127.339C259.06 127.351 259.161 127.461 259.161 127.594C259.161 127.732 259.27 127.847 259.408 127.853C259.682 127.864 259.959 127.875 260.241 127.887C260.71 127.907 261.18 127.928 261.649 127.948C261.884 127.957 262.118 127.967 262.36 127.977C262.87 127.999 263.342 128.027 263.808 128.076C264.8 128.182 265.784 128.374 266.78 128.428C267.075 128.445 267.369 128.462 267.673 128.48C267.986 128.498 268.3 128.516 268.624 128.535C271.089 128.69 273.45 128.923 275.863 129.322C280.463 130.064 285.152 130.571 289.866 130.69C290.744 130.73 291.597 131.039 292.469 131.147C292.888 131.199 293.306 131.249 293.727 131.296C293.992 131.327 294.258 131.357 294.531 131.389C295.097 131.454 295.663 131.519 296.23 131.583C297.075 131.678 297.92 131.776 298.766 131.874C301.674 132.208 304.579 132.501 307.507 132.733C309.553 132.897 311.572 133.131 313.599 133.382C315.037 133.547 316.476 133.706 317.916 133.864C318.303 133.906 318.69 133.949 319.089 133.993C321.211 134.222 323.33 134.427 325.465 134.586C331.096 135.026 332.719 135.152 334.03 135.487C335.17 135.778 336.306 136.096 337.48 136.179C338.031 136.219 338.031 136.219 338.593 136.26C338.991 136.289 339.388 136.318 339.798 136.347C343.156 136.6 346.497 136.9 349.835 137.266C350.212 137.307 350.589 137.348 350.978 137.39C351.561 137.455 352.015 137.506 352.381 137.548C353.983 137.734 355.58 137.99 357.193 137.988C357.621 137.989 358.05 137.989 358.492 137.99C359.43 138.039 359.924 137.192 359.963 136.254C359.97 136.102 359.975 135.95 359.98 135.797C359.987 135.605 359.994 135.413 360.001 135.215C360.023 134.599 360.043 133.983 360.063 133.367C360.078 132.95 360.093 132.534 360.108 132.117C360.164 130.53 361.623 129.526 362.902 130.468C362.913 130.476 362.923 130.484 362.934 130.492C364.738 131.693 366.576 132.855 368.506 133.954C370.356 135.011 372.089 136.143 373.827 137.29C375.402 138.329 377.032 139.322 378.669 140.312C379.08 140.561 379.492 140.81 379.904 141.059C380.11 141.184 380.316 141.308 380.529 141.437C382.032 142.349 383.51 143.278 384.977 144.219C386.632 145.279 388.32 146.31 390.028 147.327C391.986 148.492 393.898 149.682 395.782 150.906C396.207 151.18 396.637 151.451 397.069 151.718C398.159 152.393 398.478 153.753 397.276 154.197C396.981 154.307 396.687 154.418 396.384 154.532C396.061 154.651 395.738 154.77 395.406 154.892C392.62 155.941 389.873 157.024 387.155 158.158C384.373 159.317 381.575 160.45 378.755 161.56C375.88 162.693 373.025 163.846 370.185 165.022C369.846 165.163 369.507 165.304 369.157 165.448C367.952 165.948 366.746 166.448 365.542 166.948C364.872 167.226 364.201 167.502 363.529 167.777C363.177 167.923 362.824 168.068 362.461 168.218C361.956 168.404 361.514 168.531 361.035 168.634C360.601 168.727 360.2 168.393 360.186 167.949C360.154 166.929 360.12 165.909 360.085 164.889C360.071 164.446 360.057 164.004 360.043 163.562C360.023 162.928 360.002 162.293 359.98 161.659C359.974 161.46 359.968 161.261 359.962 161.056C359.973 160.941 359.983 160.841 359.99 160.752C360.068 159.808 359.002 159.305 358.062 159.192C357.751 159.155 357.439 159.117 357.119 159.078C356.778 159.038 356.438 158.998 356.087 158.956C355.36 158.869 354.633 158.782 353.906 158.695C353.535 158.65 353.164 158.606 352.783 158.56C351.82 158.443 350.86 158.321 349.9 158.194C345.016 157.558 340.108 157.098 335.181 156.662C334.904 156.637 334.627 156.613 334.342 156.587C333.815 156.54 333.288 156.493 332.761 156.448C332.451 156.42 332.195 156.397 331.982 156.377C331.042 156.287 330.119 155.962 329.176 155.901C328.887 155.881 328.598 155.861 328.3 155.84C327.996 155.821 327.692 155.801 327.379 155.78C326.78 155.741 326.181 155.701 325.582 155.66C325.315 155.642 325.048 155.625 324.773 155.607C324.098 155.534 323.453 155.256 322.777 155.182C322.122 155.111 321.467 155.045 320.808 154.982C320.159 154.918 319.509 154.854 318.86 154.79C318.508 154.756 318.156 154.722 317.793 154.687C315.75 154.487 313.707 154.283 311.664 154.079C311.267 154.04 310.869 154.001 310.46 153.961C308.45 153.76 306.463 153.529 304.477 153.237C302.017 152.887 299.503 152.705 297.007 152.537C296.729 152.518 296.451 152.499 296.164 152.479C295.631 152.444 295.097 152.409 294.562 152.378C293.087 152.279 291.703 152.097 290.269 151.829C287.732 151.36 285.164 151.095 282.574 150.828C282.072 150.775 281.57 150.722 281.069 150.669C278.106 150.358 275.142 150.083 272.164 149.854C270.962 149.75 269.8 149.583 268.618 149.398C267.01 149.194 265.382 149.092 263.756 148.985C263.505 148.967 263.254 148.949 262.995 148.931C262.773 148.917 262.55 148.902 262.321 148.887C261.542 148.796 261.542 148.796 260.539 148.578C258.638 148.182 256.67 148.016 254.714 147.81C254.281 147.764 253.848 147.717 253.402 147.67C252.485 147.572 251.569 147.475 250.652 147.378C249.499 147.257 248.346 147.133 247.194 147.009C242.775 146.534 238.367 146.088 233.913 145.815C231.704 145.679 229.531 145.463 227.348 145.183C226.66 145.098 225.972 145.014 225.284 144.929C224.806 144.87 224.806 144.87 224.318 144.809C223.182 144.671 222.045 144.549 220.905 144.431C219.787 144.311 218.689 144.177 217.588 143.994C213.803 143.373 209.971 142.959 206.089 142.849C205.063 142.775 205.063 142.775 204.143 142.547C202.896 142.265 201.672 142.13 200.379 142.016C200.126 141.993 199.874 141.97 199.613 141.945C199.073 141.895 198.533 141.846 197.992 141.797C196.569 141.668 195.146 141.535 193.723 141.401C193.44 141.375 193.156 141.348 192.865 141.321C190.461 141.095 188.064 140.844 185.669 140.577C183.077 140.289 180.484 140.009 177.886 139.749C173.056 139.264 173.056 139.264 170.762 139.027C170.488 138.999 170.213 138.971 169.931 138.943C168.672 138.811 167.448 138.656 166.217 138.426C165.027 138.219 163.943 138.115 162.724 138.063C161.218 137.998 159.711 137.608 158.212 137.446C158.19 137.443 158.168 137.441 158.145 137.439C157.906 137.413 157.667 137.387 157.421 137.36C156.912 137.306 156.402 137.251 155.893 137.198C155.127 137.117 154.362 137.034 153.597 136.95C151.033 136.675 148.491 136.441 145.901 136.327C145.164 136.271 144.457 135.979 143.721 135.912C143.614 135.902 143.506 135.893 143.399 135.883C143.1 135.857 142.801 135.83 142.494 135.802C142.173 135.773 141.853 135.745 141.523 135.715C138.273 135.405 135.255 135.032 132.389 133.952C131.839 133.745 131.285 133.548 130.717 133.399C129.023 132.884 127.776 131.871 126.467 130.974C126.131 130.745 126.131 130.745 125.789 130.513C121.782 127.55 121.257 123.844 121.297 119.954C121.298 119.59 121.299 119.226 121.3 118.862C121.302 117.91 121.309 116.959 121.317 116.008C121.324 115.034 121.327 114.06 121.33 113.087C121.333 112.275 121.337 111.463 121.342 110.65Z" fill="url(#paint0_radial_71_57)"/>
<path d="M124.984 0.972384C125.425 0.884069 125.799 1.27593 125.813 1.72549C125.845 2.71252 125.879 3.69951 125.914 4.6865C125.929 5.11376 125.943 5.54104 125.957 5.96832C125.976 6.58231 125.998 7.19625 126.02 7.8102C126.026 8.00139 126.031 8.19258 126.037 8.38957C126.051 8.74199 126.069 9.06683 126.117 9.38583C126.23 10.1352 126.931 10.5958 127.686 10.6661C134.491 11.3027 141.288 11.9389 148.046 12.795C150.962 13.1644 153.883 13.4754 156.817 13.7616C158.379 13.9146 159.935 14.0907 161.491 14.2706C164.347 14.5993 167.213 14.8646 170.082 15.1286C175.286 15.6074 175.286 15.6074 177.844 15.9715C180.381 16.3326 182.934 16.5646 185.5 16.7994C189.324 17.1499 193.123 17.5578 196.924 18.0177C202.42 18.6823 207.929 19.2647 213.468 19.7164C213.789 19.7432 214.111 19.77 214.443 19.7977C214.727 19.8206 215.011 19.8435 215.303 19.867C215.993 19.9505 216.652 20.2347 217.343 20.307C217.611 20.3351 217.879 20.3614 218.148 20.3866C218.543 20.4243 218.938 20.462 219.345 20.5009C219.776 20.5411 220.207 20.5813 220.651 20.6228C221.329 20.6877 222.007 20.7526 222.686 20.8177C223.387 20.8849 224.088 20.9518 224.789 21.0186C230.63 21.5764 236.451 22.1904 242.262 22.8861C245.476 23.2707 248.695 23.6261 251.921 23.9593C253.222 24.0941 254.522 24.2326 255.823 24.3709C256.23 24.414 256.23 24.414 256.644 24.4581C262.766 25.1084 268.887 25.7638 275.004 26.4331C278.731 26.84 282.46 27.2402 286.189 27.6373C286.479 27.6681 286.769 27.699 287.068 27.7308C291.203 28.1705 295.34 28.5939 299.48 29.007C303.117 29.37 306.746 29.7527 310.365 30.1977C315.631 30.8431 320.928 31.3547 326.219 31.882C330.773 32.3366 335.323 32.7965 339.854 33.3534C341.368 33.5393 342.88 33.7126 344.402 33.8587C347.352 34.1418 350.039 34.4045 352.728 35.3592C353.046 35.4549 353.365 35.5505 353.693 35.649C358.194 37.0744 361.58 39.4707 363.633 42.6579C364.369 44.0469 364.542 45.4466 364.636 46.9196C364.662 47.1863 364.688 47.453 364.715 47.7277C364.909 51.0803 363.187 53.5263 360.213 56.0716C360.029 56.2346 359.845 56.3976 359.656 56.5655C358.286 57.6731 356.383 57.3606 354.703 56.8261C354.245 56.6803 353.79 56.529 353.334 56.3736C351.149 55.6763 348.991 55.4063 346.638 55.1553C346.275 55.1155 345.912 55.0757 345.538 55.0346C344.377 54.9075 343.215 54.782 342.053 54.6566C340.54 54.4922 339.028 54.3271 337.515 54.1618C337.139 54.1208 336.763 54.0799 336.376 54.0376C333.819 53.7579 331.267 53.462 328.717 53.157C325.68 52.7945 322.641 52.4648 319.59 52.1676C315.954 51.8128 312.326 51.4402 308.709 50.9989C305.299 50.5829 301.878 50.242 298.449 49.9147C295.789 49.6601 293.136 49.3864 290.488 49.0754C289.295 48.9367 288.11 48.8207 286.907 48.7363C285.923 48.6628 285.032 48.5511 284.063 48.3902C281.984 48.0563 279.877 47.863 277.768 47.6573C276.444 47.5281 275.122 47.3956 273.799 47.2632C273.521 47.2355 273.243 47.2077 272.957 47.1791C269.822 46.8647 266.692 46.5313 263.562 46.1952C263.277 46.1645 262.991 46.1339 262.697 46.1023C261.246 45.9464 259.795 45.7902 258.344 45.6337C256.866 45.4743 255.388 45.3155 253.91 45.1569C252.742 45.0315 251.574 44.9058 250.406 44.78C249.862 44.7214 249.317 44.6628 248.772 44.6043C245.666 44.2709 242.565 43.9243 239.468 43.5501C237.97 43.3703 236.471 43.2155 234.962 43.0812C232.839 42.8882 230.735 42.6446 228.625 42.3888C225.159 41.9705 221.686 41.6071 218.205 41.2598C214.013 40.8414 209.827 40.406 205.644 39.9446C203.915 39.754 202.184 39.568 200.453 39.3839C200.202 39.3572 199.952 39.3305 199.693 39.303C198.201 39.1441 198.201 39.1441 196.708 38.986C192.367 38.5271 192.367 38.5271 190.36 38.2569C187.75 37.9124 185.118 37.67 182.489 37.4097C177.888 36.9537 173.292 36.4867 168.708 35.9539C165.747 35.6118 162.78 35.3038 159.811 34.998C154.685 34.4693 149.568 33.9003 144.455 33.3093C140.605 32.8649 136.754 32.4298 132.89 32.0477C132.586 32.0169 132.281 31.9862 131.968 31.9545C130.575 31.8101 129.841 31.734 129.148 31.7296C127.402 31.7188 126.077 33.2734 126.009 35.0184C126.003 35.1572 125.998 35.2959 125.992 35.4348C125.897 37.8531 123.274 39.3922 121.258 38.0536C120.034 37.254 118.793 36.4882 117.494 35.7506C115.862 34.8192 114.331 33.8299 112.803 32.8164C111.664 32.0656 110.5 31.3527 109.286 30.6628C107.447 29.6178 105.73 28.4943 104.007 27.3569C102.436 26.3202 100.811 25.3299 99.1769 24.3436C98.7684 24.0968 98.3599 23.85 97.9515 23.6032C97.7452 23.4786 97.539 23.354 97.3265 23.2256C96.0536 22.4538 94.8047 21.6669 93.5709 20.8636C92.0316 19.8628 90.4387 18.9217 88.8075 17.997C87.7224 17.3626 87.4538 15.9591 88.6264 15.5063C88.7768 15.4483 88.9414 15.3855 89.1225 15.3139C89.5023 15.1622 89.882 15.0105 90.2732 14.8542C90.692 14.6897 91.1107 14.5253 91.5295 14.3609C91.961 14.1893 92.3924 14.0175 92.8235 13.8455C93.7219 13.4874 94.621 13.1302 95.5206 12.7738C97.4014 12.0274 99.2712 11.2675 101.142 10.5081C104.515 9.13895 107.899 7.78159 111.287 6.43048C113.063 5.72086 114.834 5.00496 116.6 4.28225C116.901 4.15904 116.901 4.15904 117.208 4.03334C118.185 3.63299 119.163 3.23194 120.139 2.83009C120.491 2.68559 120.843 2.54109 121.206 2.39222C121.516 2.26458 121.826 2.13694 122.146 2.00544C123.885 1.31702 124.523 1.0648 124.984 0.972384Z" fill="url(#paint1_radial_71_57)"/>
<path d="M364.565 55.894C364.61 55.8541 364.668 55.832 364.729 55.832C364.865 55.832 364.978 55.9417 364.98 56.0783C365.009 58.1089 365.032 60.1394 365.046 62.17C365.053 63.1513 365.063 64.1326 365.079 65.1139C365.093 66.0633 365.102 67.0127 365.105 67.9622C365.107 68.322 365.112 68.6817 365.12 69.0414C365.198 72.9752 363.86 76.3581 360.09 79.3157C354.698 83.2207 347.954 84.1164 340.585 84.828C337.002 85.1825 333.429 85.573 329.857 85.9762C328.847 86.09 327.838 86.2027 326.828 86.3154C326.181 86.3881 325.535 86.4608 324.889 86.5336C324.589 86.567 324.289 86.6004 323.98 86.6348C323.565 86.6819 323.565 86.6819 323.142 86.7299C322.9 86.7571 322.658 86.7844 322.408 86.8124C321.288 86.9499 320.176 87.17 319.048 87.2042C318.905 87.2085 318.761 87.2127 318.618 87.2167C315.262 87.341 311.99 87.8119 308.69 88.2363C307.25 88.4162 305.805 88.5547 304.357 88.6946C302.643 88.8689 300.934 89.0671 299.224 89.2638C295.171 89.7284 291.111 90.1545 287.049 90.5732C284.215 90.8652 281.384 91.1656 278.555 91.4765C274.689 91.8983 270.82 92.2919 266.944 92.6657C263.651 92.9841 260.362 93.317 257.077 93.6742C256.549 93.7315 256.549 93.7315 256.01 93.7899C254.315 93.9761 252.623 94.1715 250.934 94.3798C250.627 94.4176 250.32 94.4555 250.004 94.4945C249.266 94.5625 248.557 94.8801 247.817 94.9312C247.148 94.9776 246.478 95.0197 245.807 95.059C236.847 95.1979 236.847 95.1979 228.88 97.0159C228.244 97.0795 227.605 97.1288 226.966 97.172C226.368 97.2142 226.368 97.2142 225.757 97.2571C225.328 97.2868 224.899 97.3165 224.457 97.347C221.556 97.5568 218.691 97.7832 215.827 98.174C213.527 98.4819 211.211 98.6942 208.891 98.9125C205.028 99.2783 201.194 99.7166 197.357 100.197C194.06 100.608 190.756 100.956 187.44 101.278C186.31 101.388 185.181 101.504 184.053 101.622C183.711 101.657 183.369 101.693 183.016 101.729C182.246 101.782 181.529 102.155 180.764 102.263C179.003 102.513 177.223 102.604 175.419 102.661C173.158 102.734 170.992 102.938 168.77 103.24C166.631 103.528 164.49 103.71 162.326 103.873C161.207 103.965 161.207 103.965 160.355 104.235C159.484 104.478 158.704 104.607 157.781 104.714C157.295 104.772 157.295 104.772 156.798 104.83C156.279 104.889 156.279 104.889 155.749 104.949C155.208 105.011 155.208 105.011 154.656 105.075C149.555 105.654 144.436 106.131 139.303 106.546C138.885 106.58 138.467 106.614 138.036 106.65C137.8 106.667 137.564 106.685 137.321 106.703C136.09 106.8 134.987 106.921 133.846 107.267C132.699 107.583 132.601 107.61 131.812 107.613C131.679 107.613 131.571 107.719 131.571 107.852C131.571 107.985 131.463 108.095 131.33 108.095C131.097 108.095 130.863 108.095 130.626 108.095C130.372 108.095 130.142 108.238 130.034 108.468C129.933 108.682 129.724 108.828 129.488 108.845C128.95 108.883 128.729 108.888 128.188 108.859C127.728 108.834 127.279 108.698 126.895 108.444C123.692 106.319 121.735 103.207 121.295 100.155C120.902 96.4072 122.312 93.3984 125.787 90.5132C128.048 88.6942 130.532 87.251 133.872 86.5967C134.692 86.4231 134.692 86.4231 135.609 86.0425C136.802 85.6549 137.559 85.6242 138.865 85.6211C141.692 85.5581 144.413 85.1739 147.179 84.7781C153.363 83.8978 159.567 83.1392 165.85 82.7086C167.512 82.6057 169.154 82.2657 170.818 82.206C170.835 82.2053 170.852 82.2047 170.869 82.2041C172.893 82.1244 174.907 82.0189 176.922 81.8619C177.058 81.8513 177.163 81.7396 177.163 81.6032C177.163 81.4674 177.267 81.3523 177.403 81.3408C177.674 81.3177 177.753 81.311 178.157 81.2766C179.37 81.173 180.583 81.0681 181.796 80.9628C182.322 80.9174 182.848 80.8723 183.373 80.8276C184.128 80.7634 184.882 80.6979 185.636 80.6321C185.872 80.6123 186.109 80.5924 186.352 80.572C187.747 80.5197 189.089 80.0541 190.476 79.8949C190.681 79.8713 190.886 79.8483 191.092 79.8258C191.374 79.7947 191.656 79.7635 191.946 79.7314C196.512 79.2418 201.113 78.8613 205.715 78.5925C206.996 78.5121 208.183 78.3786 209.422 78.1249C211.245 77.7827 213.042 77.5821 214.91 77.4071C216.177 77.2839 217.431 77.1256 218.689 76.9636C222.767 76.4395 226.86 76.0184 230.964 75.6111C235.827 75.1279 240.682 74.6177 245.53 74.0607C245.802 74.0296 246.074 73.9986 246.355 73.9666C247.118 73.8792 247.881 73.791 248.644 73.7023C249.075 73.6522 249.506 73.6021 249.951 73.5505C251.341 73.3913 252.717 73.1122 254.113 73.0146C254.371 72.9966 254.629 72.979 254.887 72.9619C258.063 72.7384 261.211 72.4217 264.363 72.0707C267.64 71.7071 270.92 71.3558 274.2 71.0045C274.919 70.9275 275.638 70.8504 276.357 70.7733C278.141 70.5821 279.925 70.3909 281.709 70.1997C283.224 70.0374 284.739 69.875 286.254 69.7126C286.954 69.6376 287.653 69.5627 288.353 69.4877C293.686 68.9163 293.686 68.9163 299.014 68.322C301.777 68.0084 304.541 67.7267 307.316 67.4705C314.756 66.7884 314.756 66.7884 322.144 65.8768C323.728 65.6729 325.315 65.5225 326.911 65.3754C330.785 65.016 334.632 64.5635 338.482 64.0987C340.079 63.9063 341.676 63.7206 343.277 63.5458C344.205 63.4443 345.133 63.3405 346.061 63.2366C346.712 63.1646 347.364 63.0959 348.016 63.0273C350.303 62.7693 352.08 62.4304 354.088 61.6122C354.467 61.5029 354.846 61.3937 355.236 61.2811C358.847 60.1353 361.569 58.5591 364.032 56.3598C364.306 56.1206 364.329 56.1004 364.565 55.894Z" fill="url(#paint2_radial_71_57)"/>
<path d="M409.815 127.72V119.56H415.655C419.495 119.56 421.895 118.68 423.575 114.04L424.695 111.08L408.775 69.8799H419.095L429.255 98.6799L439.975 69.8799H450.055L430.695 118.2C427.735 125.56 423.575 128.6 417.095 128.6C414.375 128.6 411.975 128.28 409.815 127.72Z" fill="white"/>
<path d="M382.28 110.44C373.88 110.44 368.76 105.56 368.76 98.1197C368.76 90.8397 374.04 86.2797 383.4 85.5597L395.24 84.6797V83.7997C395.24 78.4397 392.04 76.2797 387.08 76.2797C381.32 76.2797 378.12 78.6797 378.12 82.8397H369.8C369.8 74.2797 376.84 68.6797 387.56 68.6797C398.2 68.6797 404.76 74.4397 404.76 85.3997V109.4H396.2L395.48 103.56C393.8 107.64 388.44 110.44 382.28 110.44ZM385.48 103.08C391.48 103.08 395.32 99.4797 395.32 93.3997V91.3197L387.08 91.9597C381 92.5197 378.68 94.5197 378.68 97.7197C378.68 101.32 381.08 103.08 385.48 103.08Z" fill="white"/>
<path d="M317.445 109.4L304.645 69.8799H314.805L320.005 86.8399C320.885 89.9599 321.685 93.3999 322.405 97.0799C323.125 93.2399 323.845 90.7599 325.125 86.8399L330.565 69.8799H340.485L345.765 86.8399C346.245 88.4399 347.845 94.3599 348.325 96.9999C348.965 94.0399 350.245 89.3199 350.965 86.8399L356.245 69.8799H366.565L352.885 109.4H343.765L338.325 92.2799C336.725 87.0799 335.845 83.3199 335.525 81.3199C335.125 83.1599 334.405 85.9599 332.405 92.4399L326.965 109.4H317.445Z" fill="white"/>
<path d="M300.097 109.3L249.397 109.4V99.8L273.297 79.6C283.197 71.2 286.497 66.4 286.497 59.4C286.497 51.1 281.997 46.4 274.297 46.4C266.297 46.4 261.297 52 261.197 61.4H248.497C248.597 45.4 258.797 35 274.297 35C289.897 35 299.597 43.9 299.597 58.7C299.597 68.9 293.997 76.6 282.897 86.1L269.697 97.4H300.097V109.3Z" fill="white"/>
<path d="M236.089 109.4H226.329V78.0396H218.729V69.8796H226.329V57.5596H236.089V69.8796H243.77V78.0396H236.089V109.4Z" fill="white"/>
<path d="M214.481 69.7202V78.7602H210.881C203.841 78.7602 199.441 82.5202 199.441 90.2002V109.4H189.681V69.9602H198.881L199.441 75.7202C201.121 71.8002 204.881 69.1602 210.161 69.1602C211.521 69.1602 212.881 69.3202 214.481 69.7202Z" fill="white"/>
<path d="M157.613 110.44C149.213 110.44 144.093 105.56 144.093 98.1197C144.093 90.8397 149.373 86.2797 158.733 85.5597L170.573 84.6797V83.7997C170.573 78.4397 167.373 76.2797 162.413 76.2797C156.653 76.2797 153.453 78.6797 153.453 82.8397H145.133C145.133 74.2797 152.173 68.6797 162.893 68.6797C173.533 68.6797 180.093 74.4397 180.093 85.3997V109.4H171.533L170.813 103.56C169.133 107.64 163.773 110.44 157.613 110.44ZM160.813 103.08C166.813 103.08 170.653 99.4797 170.653 93.3997V91.3197L162.413 91.9597C156.333 92.5197 154.013 94.5197 154.013 97.7197C154.013 101.32 156.413 103.08 160.813 103.08Z" fill="white"/>
<path d="M84.8313 109.4H75.0713V69.8797H84.0313L84.8313 74.5197C86.8313 71.2397 90.8313 68.6797 96.5113 68.6797C102.511 68.6797 106.671 71.6397 108.751 76.1997C110.751 71.6397 115.391 68.6797 121.391 68.6797C130.991 68.6797 136.271 74.4397 136.271 83.5597V109.4H126.591V86.1197C126.591 80.4397 123.551 77.4797 118.911 77.4797C114.191 77.4797 110.591 80.5197 110.591 86.9997V109.4H100.831V86.0397C100.831 80.5197 97.8713 77.5597 93.2313 77.5597C88.5913 77.5597 84.8313 80.5997 84.8313 86.9997V109.4Z" fill="white"/>
<path d="M35 97.3997H44.28C44.36 100.84 46.92 103 51.4 103C55.96 103 58.44 101.16 58.44 98.2797C58.44 96.2797 57.4 94.8397 53.88 94.0397L46.76 92.3597C39.64 90.7597 36.2 87.3997 36.2 81.0797C36.2 73.3197 42.76 68.6797 51.88 68.6797C60.76 68.6797 66.76 73.7997 66.84 81.4797H57.56C57.48 78.1197 55.24 75.9597 51.48 75.9597C47.64 75.9597 45.4 77.7197 45.4 80.6797C45.4 82.9197 47.16 84.3597 50.52 85.1597L57.64 86.8397C64.28 88.3597 67.64 91.3997 67.64 97.4797C67.64 105.48 60.84 110.44 51.08 110.44C41.24 110.44 35 105.16 35 97.3997Z" fill="white"/>
<defs>
<radialGradient id="paint0_radial_71_57" cx="0" cy="0" r="1" gradientUnits="userSpaceOnUse" gradientTransform="translate(260.147 81.3602) rotate(90) scale(87.4253 395.321)">
<stop offset="0.375205" stop-color="#A7531C" stop-opacity="0"/>
<stop offset="1" stop-color="#A7531C"/>
</radialGradient>
<radialGradient id="paint1_radial_71_57" cx="0" cy="0" r="1" gradientUnits="userSpaceOnUse" gradientTransform="translate(229.901 14.8877) rotate(92.6839) scale(86.1953 422.168)">
<stop stop-color="#A7531C"/>
<stop offset="0.624795" stop-color="#A7531C" stop-opacity="0"/>
</radialGradient>
<radialGradient id="paint2_radial_71_57" cx="0" cy="0" r="1" gradientUnits="userSpaceOnUse" gradientTransform="translate(239.597 85.2147) rotate(36.2435) scale(130.357 404.835)">
<stop offset="0.375205" stop-color="#A7531C" stop-opacity="0"/>
<stop offset="1" stop-color="#A7531C"/>
</radialGradient>
</defs>
</svg>
